<svg xmlns="http://www.w3.org/2000/svg" viewBox="0 0 907 637" width="907" height="637"><path fill="#044428" fill-rule="evenodd" d="M23.6 630.3C9.1 627.0 1.8 610.0 8.6 595.6C14.3 583.5 31.1 579.2 42.5 586.9C46.7 589.8 46.7 590.1 43.5 593.1C39.5 596.7 39.4 596.7 37.3 595.0C34.7 593.0 32.5 592.4 28.2 592.6C25.1 592.7 24.2 593.0 22.4 594.3C17.3 597.8 15.2 604.3 16.7 611.1C18.0 616.7 20.7 619.8 25.7 621.5C28.2 622.3 33.7 621.9 36.1 620.7C38.3 619.7 38.6 618.8 38.4 615.2L38.2 612.8L34.5 612.5L30.8 612.2L30.8 608.2L30.8 604.2L39.2 604.2L47.8 604.2L47.8 615.0L47.8 625.7L44.8 627.2C38.2 630.4 29.7 631.7 23.6 630.3ZM281.8 630.4C277.5 629.8 273.9 627.9 270.5 624.5C259.1 613.2 262.3 591.8 276.2 585.5C289.2 579.6 302.4 585.1 307.4 598.5C309.0 602.7 309.1 610.1 307.8 614.9C305.4 623.1 298.3 629.4 290.5 630.2C289.0 630.4 287.1 630.6 286.2 630.7C285.4 630.8 283.4 630.7 281.8 630.4ZM522.0 630.3C514.0 628.5 507.2 621.6 505.3 613.5C501.0 595.1 516.1 579.4 534.0 583.7C538.5 584.8 544.5 588.5 544.5 590.2C544.5 590.7 541.9 593.4 539.1 595.7C538.1 596.6 538.0 596.6 536.5 595.3C531.5 591.1 522.8 591.6 518.4 596.3C515.8 599.0 514.8 602.3 514.8 607.2C514.8 614.3 517.3 618.6 523.0 621.1C525.9 622.5 531.8 622.2 534.9 620.6L537.0 619.5L536.9 616.1L536.8 612.8L533.0 612.5L529.2 612.2L529.2 608.2L529.2 604.2L537.8 604.2L546.2 604.2L546.2 617.0L546.2 629.8L542.8 629.9C540.8 630.0 539.1 629.8 538.7 629.5C538.2 629.1 537.5 629.1 535.7 629.7C532.6 630.8 525.4 631.1 522.0 630.3ZM56.2 629.4C56.1 629.0 56.0 618.7 56.1 606.5L56.2 584.2L67.0 584.1C80.6 583.9 84.0 584.6 88.4 588.2C94.7 593.6 93.2 606.6 85.8 610.5C84.5 611.2 83.5 611.9 83.5 612.2C83.5 612.8 86.4 617.5 90.6 623.9C92.5 626.7 94.0 629.3 94.0 629.5C94.0 629.8 91.8 630.0 88.4 629.9L82.8 629.8L78.7 622.9C72.8 612.8 73.0 613.0 69.9 613.0C68.4 613.0 67.0 613.2 66.6 613.4C66.2 613.7 66.0 616.2 65.9 621.8L65.8 629.8L61.1 629.9C57.7 630.0 56.4 629.9 56.2 629.4ZM100.2 629.4C100.1 629.0 100.0 618.7 100.1 606.5L100.2 584.2L115.8 584.1L131.4 584.0L131.6 587.8C131.7 590.1 131.5 592.0 131.2 592.4C130.7 593.1 129.3 593.1 121.1 592.8C115.8 592.7 111.2 592.7 110.8 592.8C110.2 593.0 110.0 594.0 110.0 597.3C110.0 599.6 110.1 601.5 110.1 601.6C110.2 601.7 114.5 601.8 119.8 602.0L129.2 602.2L129.2 606.5L129.2 610.8L119.6 610.9L110.0 611.0L110.1 616.1L110.2 621.2L121.0 621.5L131.8 621.8L132.0 625.2C132.2 627.2 132.2 629.0 132.1 629.4C131.9 629.9 128.3 630.0 116.2 630.0C104.1 630.0 100.4 629.9 100.2 629.4ZM139.9 629.6C139.8 629.4 139.8 619.1 139.9 606.6L140.0 584.0L155.6 584.1L171.2 584.2L171.4 588.2C171.5 591.0 171.4 592.3 170.9 592.6C170.5 592.8 165.7 593.0 160.1 593.0L150.0 593.0L150.1 597.4L150.2 601.8L159.6 601.9L168.9 602.0L169.2 605.8C169.7 611.2 170.1 611.0 159.5 611.0C152.5 611.0 150.5 611.1 150.0 611.7C149.6 612.2 149.6 613.7 149.9 616.8L150.2 621.2L161.0 621.5L171.8 621.8L172.0 625.4C172.1 627.4 172.2 629.2 172.1 629.5C171.9 630.1 140.1 630.2 139.9 629.6ZM179.7 629.4C179.6 629.0 179.5 618.7 179.6 606.5L179.8 584.2L184.4 584.1C188.9 584.0 189.0 584.0 189.8 585.4C190.3 586.1 192.0 588.4 193.5 590.5C195.1 592.6 198.5 597.5 201.3 601.5C207.5 610.7 209.0 612.7 209.6 612.1C209.8 611.9 210.0 605.5 210.1 598.0L210.2 584.2L214.6 584.1L218.9 584.0L219.2 586.3C219.6 589.3 219.6 625.6 219.2 628.1L218.9 630.0L214.5 630.0L210.1 630.0L208.6 628.1C207.8 627.1 205.0 622.9 202.2 618.8C196.7 610.4 190.6 601.8 190.0 601.6C189.5 601.4 189.0 612.1 189.0 622.1L189.0 630.0L184.5 630.0C181.3 630.0 179.9 629.8 179.7 629.4ZM225.0 626.0L225.0 622.0L229.1 616.9C236.6 607.6 247.0 594.1 247.0 593.6C247.0 593.0 239.8 592.5 232.2 592.5L226.6 592.5L226.3 589.3C225.7 583.5 224.0 584.0 243.8 584.0L261.0 584.0L261.0 588.1L261.0 592.1L254.8 599.9C251.4 604.2 246.3 610.6 243.5 614.1C240.7 617.6 238.6 620.7 238.8 621.0C238.9 621.3 243.3 621.5 249.8 621.5C258.5 621.5 260.5 621.6 260.9 622.2C261.1 622.6 261.2 624.5 261.1 626.5L260.9 630.0L243.0 630.0L225.0 630.0L225.0 626.0ZM333.7 628.9C333.6 628.3 333.5 618.0 333.6 606.0L333.8 584.2L349.2 584.1C358.8 584.0 364.8 584.2 365.0 584.5C365.3 584.9 365.3 585.7 365.1 590.3L365.0 592.4L354.6 592.7C348.9 592.9 344.1 593.2 343.9 593.5C343.6 593.7 343.5 595.6 343.6 597.8L343.8 601.8L353.2 602.0L362.8 602.2L362.9 605.9C363.0 608.2 362.8 609.9 362.5 610.3C362.0 610.9 360.0 611.0 352.9 611.0C342.6 611.0 343.4 610.5 343.6 617.3L343.8 621.2L354.8 621.5L365.8 621.8L365.8 625.8L365.8 629.8L349.9 629.9L334.0 630.0L333.7 628.9ZM373.7 629.4C373.6 629.0 373.5 618.7 373.6 606.5L373.8 584.2L378.3 584.1L382.9 584.0L384.6 586.1C385.6 587.3 389.5 592.8 393.3 598.2C400.9 609.4 402.9 612.0 403.5 612.0C403.8 612.0 404.0 606.4 404.0 598.6C404.0 591.3 404.2 585.0 404.4 584.6C404.7 584.1 406.1 584.0 409.3 584.1L413.8 584.2L413.8 607.0L413.8 629.8L408.9 629.9L404.1 630.0L402.4 627.6C391.1 611.0 384.3 601.5 384.0 601.8C383.7 602.1 383.5 608.2 383.5 615.5C383.4 622.8 383.3 629.0 383.1 629.4C382.8 630.3 374.1 630.3 373.7 629.4ZM422.8 625.1C422.4 618.9 422.4 585.8 422.8 584.8C423.1 584.1 425.0 584.0 438.8 584.0L454.5 584.0L454.5 588.2C454.5 591.6 454.3 592.5 453.7 592.7C453.3 592.9 448.5 593.0 443.0 593.0C433.4 593.0 433.1 593.0 432.7 594.0C432.3 595.5 433.0 601.2 433.7 601.6C434.0 601.8 438.3 602.0 443.1 602.0L452.0 602.0L451.9 606.4L451.8 610.8L442.4 610.9C431.6 611.0 432.3 610.5 432.9 617.2L433.2 621.2L444.0 621.5L454.8 621.8L454.8 625.8L454.8 629.8L439.0 629.9L423.2 630.0L422.8 625.1ZM463.4 629.7C463.2 629.5 463.0 619.1 463.0 606.7L463.0 584.0L474.4 584.0C487.7 584.0 490.6 584.6 494.5 587.8C498.5 591.3 500.1 597.7 498.5 603.6C497.7 606.3 495.1 609.5 492.6 610.7C491.5 611.3 490.4 611.9 490.3 612.1C490.1 612.2 492.2 616.0 495.0 620.4C497.8 624.9 500.2 628.8 500.3 629.3C500.6 629.9 499.8 630.0 495.1 630.0L489.6 630.0L485.2 622.4C482.7 618.2 480.4 614.4 479.9 613.9C478.8 612.8 473.9 612.6 473.1 613.7C472.7 614.1 472.5 617.4 472.4 622.0L472.2 629.8L468.0 629.9C465.6 630.0 463.5 629.9 463.4 629.7ZM566.0 621.0C566.0 610.9 566.1 611.2 561.7 604.5C557.2 597.5 549.5 584.9 549.5 584.5C549.5 584.2 551.8 584.0 555.0 584.0L560.5 584.0L565.4 592.3C568.3 597.2 570.5 600.5 570.9 600.4C571.3 600.3 573.7 596.6 576.3 592.1L581.1 584.0L586.6 584.0C591.3 584.0 592.1 584.1 591.8 584.7C591.7 585.1 589.7 588.5 587.4 592.1C585.1 595.8 581.5 601.4 579.5 604.7L575.8 610.7L575.5 620.2L575.2 629.8L570.6 629.9L566.0 630.0L566.0 621.0ZM614.6 607.1L614.8 584.2L625.5 584.1C637.5 584.0 639.6 584.3 643.8 587.1C645.3 588.2 646.7 589.7 647.7 591.5C649.1 594.0 649.2 594.7 649.2 598.8C649.3 605.7 647.1 609.3 641.5 611.9C639.1 613.1 638.0 613.2 631.9 613.4C627.4 613.5 624.9 613.8 624.5 614.2C624.3 614.5 624.0 618.2 623.9 622.3L623.8 629.8L619.1 629.9L614.5 630.0L614.6 607.1ZM668.2 628.1C667.7 627.1 666.5 623.9 665.5 621.0C664.5 618.1 660.9 608.9 657.6 600.5C654.2 592.2 651.5 585.0 651.5 584.7C651.5 584.2 652.7 584.0 656.7 584.0L661.8 584.0L665.4 593.9C671.3 610.2 672.7 613.7 673.4 613.9C674.1 614.1 674.9 612.3 678.5 602.5C682.8 590.5 684.5 585.9 685.0 584.9C685.5 584.1 686.8 584.0 710.1 584.1L734.8 584.2L734.9 587.8C734.9 589.7 734.8 591.5 734.6 591.9C734.3 592.3 732.1 592.6 727.8 592.7C724.3 592.8 721.3 593.1 721.1 593.2C720.9 593.4 720.6 601.7 720.5 611.7L720.2 629.8L715.8 629.8L711.2 629.8L711.0 611.5L710.8 593.3L707.8 592.8C706.1 592.6 703.2 592.5 701.4 592.7C699.6 592.8 697.8 592.7 697.6 592.5C697.3 592.4 696.9 590.6 696.7 588.6C696.5 586.5 696.1 585.0 695.8 585.1C695.2 585.3 692.4 591.9 688.0 603.2C686.1 608.2 683.0 616.2 681.1 621.0L677.7 629.8L673.3 629.9L669.0 630.0L668.2 628.1ZM733.7 629.4C733.2 628.6 733.2 621.9 733.7 621.1C733.9 620.7 735.5 620.5 738.0 620.5C741.9 620.5 742.0 620.5 742.4 621.9C742.8 623.6 742.9 628.0 742.4 629.1C742.1 629.9 741.4 630.0 738.0 630.0C735.4 630.0 733.9 629.8 733.7 629.4ZM770.2 629.4C770.1 629.0 770.0 618.7 770.1 606.5L770.2 584.2L774.8 584.2L779.2 584.2L779.4 602.2C779.5 614.3 779.7 620.4 780.1 620.8C780.5 621.3 783.1 621.5 790.9 621.6L801.2 621.8L801.2 625.8L801.2 629.8L785.9 629.9C773.8 630.0 770.4 629.9 770.2 629.4ZM813.0 616.4C812.9 608.9 812.9 600.8 813.0 598.5C813.0 596.2 812.8 594.0 812.6 593.6C812.3 593.1 810.2 592.9 805.7 592.7C801.4 592.5 799.2 592.3 798.9 591.9C798.4 591.1 798.4 585.4 798.9 584.6C799.2 584.1 803.3 584.0 817.8 584.1L836.2 584.2L836.2 588.2L836.2 592.2L829.5 592.6C825.8 592.7 822.7 592.9 822.6 592.9C822.6 593.0 822.5 601.3 822.4 611.4L822.2 629.8L817.6 629.9L813.0 630.0L813.0 616.4ZM842.5 607.0L842.5 584.0L853.4 584.0C865.2 584.0 867.8 584.4 872.6 586.8C881.5 591.3 885.7 601.6 883.3 613.1C881.6 621.1 876.1 626.8 868.1 629.1C865.3 629.8 862.9 630.0 853.6 630.0L842.5 630.0L842.5 607.0ZM891.5 628.9C890.8 627.7 891.1 621.7 891.9 620.9C892.1 620.7 894.0 620.5 896.0 620.6L899.8 620.8L900.4 623.5C901.0 625.9 901.0 626.5 900.3 628.1L899.6 630.0L895.8 630.0C892.5 630.0 892.0 629.9 891.5 628.9ZM291.2 621.1C296.0 618.8 298.7 614.0 298.7 607.5C298.8 598.0 294.1 592.4 286.2 592.4C281.0 592.4 277.0 594.9 275.0 599.6C273.3 603.5 273.2 611.2 274.9 614.6C276.4 617.6 278.6 619.9 281.2 621.1C283.9 622.3 288.6 622.3 291.2 621.1ZM865.0 620.7C868.7 619.6 872.2 616.1 873.3 612.2C875.1 605.9 873.4 598.9 869.1 595.6C866.2 593.4 863.9 592.9 857.6 593.1L852.2 593.2L852.1 606.7C852.0 616.2 852.2 620.3 852.6 620.8C853.4 621.8 861.6 621.7 865.0 620.7ZM77.6 604.5C78.7 604.2 80.1 603.4 80.9 602.8C82.1 601.7 82.2 601.2 82.2 598.8C82.2 596.3 82.1 595.8 80.9 594.7C80.1 594.1 78.7 593.3 77.6 593.0C75.4 592.4 67.5 592.3 66.6 592.9C66.1 593.2 66.0 594.8 66.1 598.8L66.2 604.2L68.8 604.5C72.9 605.0 75.7 605.0 77.6 604.5ZM636.5 604.1C641.5 601.6 640.5 594.5 635.0 593.0C632.5 592.3 625.3 592.4 624.6 593.1C623.8 593.9 623.8 603.6 624.6 604.4C625.6 605.4 634.4 605.2 636.5 604.1ZM486.0 603.8C488.1 602.7 489.0 601.1 489.0 598.4C489.0 595.7 487.1 593.4 484.5 592.8C481.7 592.3 473.7 592.5 473.1 593.1C472.5 593.7 472.2 602.2 472.8 603.7C473.2 604.8 483.9 604.9 486.0 603.8ZM464.5 525.7C438.2 522.8 412.5 514.5 365.0 493.7C323.3 475.5 312.4 471.6 297.5 469.7C286.8 468.4 279.5 469.3 270.2 473.0C258.9 477.6 254.2 481.1 229.5 503.0C224.6 507.3 219.4 511.8 217.9 513.0C212.8 516.8 208.3 517.8 203.2 516.3C196.3 514.2 193.6 508.5 191.8 492.2C190.9 484.1 188.4 464.8 187.0 454.8C186.5 450.9 185.1 440.7 184.0 432.0C181.6 413.8 180.7 406.9 178.0 388.0C176.0 374.0 176.0 372.4 177.5 369.5C178.2 368.1 193.1 352.1 203.3 341.7C229.9 314.6 248.5 300.9 270.8 292.0C283.4 286.9 293.6 284.6 308.1 283.4C327.2 281.9 352.9 286.7 376.8 296.1C389.7 301.2 401.2 307.3 426.9 322.5C450.2 336.3 485.0 345.0 516.7 345.0C530.6 345.0 545.9 343.4 563.0 340.2C574.8 337.9 584.8 337.4 590.8 338.7C601.8 341.2 608.6 345.7 612.3 353.2C619.6 368.1 611.1 381.5 587.3 392.8C571.7 400.1 556.6 402.9 526.8 404.0C476.9 405.8 452.5 408.2 432.6 413.1C421.2 415.9 418.6 417.2 416.3 421.1C413.8 425.6 414.5 430.7 418.0 434.1C421.2 437.1 424.2 437.5 430.1 435.8C445.0 431.4 450.6 430.3 468.0 428.5C479.6 427.4 490.0 426.7 506.0 426.0C552.0 424.1 565.2 422.5 582.2 416.8C592.0 413.5 596.8 411.4 603.9 407.4C619.9 398.3 629.3 387.8 633.1 374.6C634.7 369.1 634.7 358.5 633.1 352.9C629.4 339.8 621.0 329.8 609.3 324.2C607.2 323.2 605.4 322.2 605.2 322.0C605.0 321.6 606.5 320.5 616.7 314.5C620.6 312.2 632.7 304.9 643.7 298.2C681.1 275.6 691.9 270.2 707.2 266.1C725.8 261.3 743.0 269.6 746.0 285.0C748.0 295.4 745.7 308.0 738.1 327.0C718.8 375.6 674.2 432.5 625.2 470.8C598.5 491.8 570.6 507.1 541.0 517.1C529.1 521.1 520.8 523.1 507.0 525.0C497.5 526.4 473.9 526.8 464.5 525.7ZM504.6 296.7C504.2 296.5 502.5 293.4 500.7 289.8C498.9 286.2 494.5 278.0 491.1 271.5C481.5 253.6 480.2 251.1 480.6 250.7C480.8 250.5 483.7 250.9 487.1 251.5C498.7 253.6 514.7 253.4 525.7 251.0C531.0 249.8 531.0 249.8 531.0 250.6C531.0 251.0 528.5 256.0 525.5 261.8C522.5 267.5 517.3 277.6 514.0 284.1C507.8 296.4 506.9 297.6 504.6 296.7ZM416.6 268.4C415.5 267.3 415.5 267.3 421.0 233.0C421.8 227.9 422.8 222.2 423.1 220.4C423.3 218.5 423.8 216.9 424.0 216.7C424.2 216.6 427.4 219.5 431.1 223.1C440.5 232.6 448.7 238.2 460.6 243.3C464.4 245.0 466.0 245.9 466.0 246.5C466.0 247.0 465.7 247.5 465.4 247.7C457.2 251.0 444.0 257.1 429.9 263.8C419.5 268.8 417.6 269.4 416.6 268.4ZM579.2 264.5C574.0 262.0 564.7 257.4 558.5 254.5C552.3 251.5 546.9 249.0 546.7 249.0C546.0 249.0 543.5 247.0 543.5 246.5C543.5 246.3 545.8 245.0 548.6 243.6C559.5 238.4 568.4 232.1 577.5 223.2C581.0 219.8 583.9 217.0 584.1 217.0C584.4 217.0 584.7 218.4 588.3 243.0C589.0 247.8 590.1 255.1 590.7 259.2C591.9 267.2 591.8 268.6 589.7 268.9C589.2 268.9 584.5 267.0 579.2 264.5ZM497.0 242.7C488.4 241.7 476.4 239.0 470.6 236.7C464.7 234.4 454.7 229.1 450.2 225.9C438.2 217.3 426.8 203.7 420.5 190.4C417.6 184.2 416.9 182.1 415.0 174.5C411.0 159.2 411.1 144.7 415.2 128.9C419.0 114.4 425.6 102.5 436.4 90.5C440.2 86.3 450.5 78.0 455.9 74.8C472.0 65.1 493.9 59.9 511.5 61.5C545.7 64.5 573.2 83.1 588.5 113.5C590.7 117.9 594.1 127.7 595.5 133.7C598.4 146.4 597.8 161.9 593.9 175.5C587.3 198.7 573.0 217.2 551.9 229.9C542.2 235.7 531.4 239.7 519.8 241.8C515.5 242.5 500.7 243.1 497.0 242.7ZM412.0 205.6C407.4 204.9 374.4 200.0 370.8 199.5C365.7 198.9 364.1 198.0 364.8 195.9C365.0 195.3 367.4 192.4 370.2 189.5C373.0 186.6 380.9 178.3 387.7 171.1C394.5 163.9 400.4 158.0 400.7 158.0C401.1 158.0 401.6 159.9 402.0 163.1C403.7 177.4 408.2 190.9 415.0 202.4C415.8 203.9 416.5 205.3 416.5 205.5C416.5 206.0 414.4 206.1 412.0 205.6ZM592.3 205.6C592.2 205.4 592.9 204.0 593.8 202.5C600.1 192.5 605.4 177.2 607.5 162.8C608.3 157.6 608.3 157.4 609.2 157.8C609.5 158.1 613.6 162.4 618.2 167.5C622.9 172.6 629.0 179.2 632.0 182.2C638.5 189.0 644.5 195.8 644.5 196.5C644.5 196.8 644.1 197.4 643.6 197.9C642.6 198.9 640.9 199.2 610.7 203.5C590.8 206.3 592.6 206.1 592.3 205.6ZM389.7 135.1C384.0 129.1 376.2 121.1 372.4 117.2C365.1 109.8 364.0 108.0 365.8 106.5C366.4 106.1 370.1 105.2 375.3 104.3C390.5 101.8 414.9 98.0 415.7 98.0C417.0 98.0 416.6 99.3 414.6 102.9C409.9 110.9 406.4 119.7 404.0 129.8C402.8 134.8 401.5 142.7 401.5 145.4C401.5 147.1 399.3 145.2 389.7 135.1ZM608.0 144.6C608.0 143.8 607.6 141.1 607.2 138.5C605.1 126.0 601.1 114.5 595.4 104.5C593.6 101.3 592.3 98.6 592.5 98.3C592.7 98.1 596.7 98.5 601.4 99.2C606.0 99.9 614.3 101.2 619.8 102.0C641.2 105.2 642.6 105.5 643.6 106.3C644.1 106.8 644.5 107.6 644.5 108.1C644.5 108.6 641.4 112.2 637.6 116.1C633.8 120.0 625.9 128.4 620.1 134.6C614.2 140.9 609.1 146.0 608.7 146.0C608.3 146.0 608.0 145.5 608.0 144.6ZM423.8 87.4C423.7 87.0 423.2 84.3 422.8 81.2C421.9 74.6 419.8 61.0 419.0 56.5C418.7 54.7 417.9 49.6 417.3 45.2C416.2 38.2 416.2 37.1 416.8 36.1C417.2 35.5 417.7 35.0 418.0 35.0C418.6 35.0 425.4 38.1 437.5 43.7C442.6 46.1 450.7 49.8 455.5 51.8C464.9 55.8 466.5 56.7 466.5 57.7C466.5 58.0 463.5 59.7 459.7 61.5C448.9 66.6 439.8 73.0 430.2 82.2C426.9 85.4 424.2 88.0 424.1 88.0C424.0 88.0 423.9 87.7 423.8 87.4ZM578.7 82.5C571.5 75.2 561.6 67.7 552.9 63.1C549.2 61.1 545.9 59.5 545.6 59.5C544.8 59.5 544.0 58.3 544.4 57.7C545.0 56.7 589.4 35.0 590.8 35.0C591.5 35.0 592.5 36.5 592.2 37.2C592.1 37.5 591.6 41.5 591.0 46.0C590.4 50.5 589.1 60.7 587.9 68.5C586.8 76.3 585.8 83.9 585.6 85.2C585.4 86.6 585.0 87.7 584.7 87.8C584.5 87.9 581.8 85.5 578.7 82.5ZM480.8 53.5C480.4 53.0 494.0 25.4 500.4 13.8C504.6 6.0 506.2 5.0 508.4 8.7C511.5 13.8 531.0 52.3 531.0 53.2C531.0 54.2 531.0 54.3 521.5 52.4C512.6 50.7 496.5 50.7 488.1 52.4C485.0 53.0 482.2 53.7 481.8 53.8C481.4 53.9 480.9 53.8 480.8 53.5Z"/></svg>
